<?xml version="1.0" encoding="UTF-8" standalone="no"?>
<svg width="600" height="400" viewBox="0 0 600 400" fill="none" xmlns="http://www.w3.org/2000/svg">
  <rect width="600" height="400" rx="8" fill="#1E293B" />
  <rect x="20" y="20" width="170" height="360" rx="6" fill="#0F172A" />
  <rect x="40" y="40" width="130" height="25" rx="4" fill="#334155" />
  <rect x="40" y="80" width="130" height="25" rx="4" fill="#1E293B" />
  <rect x="40" y="120" width="130" height="25" rx="4" fill="#1E293B" />
  <rect x="40" y="160" width="130" height="25" rx="4" fill="#1E293B" />
  <rect x="210" y="20" width="370" height="80" rx="6" fill="#0F172A" />
  <rect x="230" y="40" width="100" height="40" rx="4" fill="#334155" />
  <rect x="350" y="40" width="100" height="40" rx="4" fill="#334155" />
  <rect x="470" y="40" width="90" height="40" rx="4" fill="#334155" />
  <rect x="210" y="120" width="370" height="260" rx="6" fill="#0F172A" />
  <rect x="230" y="150" width="330" height="10" rx="2" fill="#334155" />
  <rect x="230" y="170" width="330" height="10" rx="2" fill="#334155" />
  <rect x="230" y="190" width="330" height="10" rx="2" fill="#334155" />
  <rect x="230" y="210" width="200" height="10" rx="2" fill="#334155" />
  <rect x="230" y="250" width="150" height="80" rx="4" fill="#334155" />
  <rect x="400" y="250" width="150" height="80" rx="4" fill="#334155" />
  <circle cx="560" cy="40" r="20" fill="#0EA5E9" />
</svg>